<svg width="77" height="32" viewBox="0 0 77 32" fill="none" xmlns="http://www.w3.org/2000/svg">
<g clip-path="url(#clip0_0_228)">
<path d="M11.6577 30.71C11.6383 30.6965 11.617 30.6779 11.5946 30.6584C11.2321 30.2097 8.9908 27.4044 6.70703 23.8064C6.02203 22.6599 5.57722 21.7657 5.66263 21.5345C5.88605 20.9333 9.86746 20.6042 11.0936 21.1492C11.4665 21.3147 11.4571 21.5337 11.4571 21.6612C11.4571 22.2116 11.4298 23.6885 11.4298 23.6885C11.4301 23.9936 11.6784 24.2411 11.9841 24.2406C12.2904 24.2406 12.5377 23.9921 12.5367 23.6862L12.5309 20.0063C12.5309 19.6869 12.1809 19.6071 12.1153 19.5947C11.4753 19.5908 10.1757 19.5869 8.7803 19.5869C5.70121 19.5869 5.01315 19.7132 4.49005 19.3715C3.35667 18.631 1.50351 13.6405 1.46029 10.8327C1.39877 6.87157 3.74787 3.44223 7.05571 1.74308C8.43767 1.04786 9.99855 0.656006 11.6472 0.656006C16.8827 0.656006 21.1943 4.60424 21.768 9.68395C21.7685 9.68782 21.7685 9.6936 21.7695 9.69746C21.8747 10.9255 15.1004 11.1865 13.7604 10.8292C13.555 10.7743 13.5024 10.5642 13.5024 10.4737C13.5009 9.53992 13.4947 6.91198 13.4947 6.91198C13.4936 6.60657 13.2453 6.35885 12.9395 6.35963C12.6343 6.36013 12.3859 6.60835 12.3859 6.91428L12.3975 11.7552C12.4072 12.0601 12.6632 12.1424 12.7333 12.1561C13.4953 12.1563 15.2774 12.1546 16.9371 12.1546C19.1805 12.1546 20.1227 12.4143 20.7498 12.8912C21.1666 13.2089 21.3281 13.8169 21.187 14.6072C19.9291 21.6371 11.9571 30.3469 11.6577 30.71ZM33.275 14.3029C35.2861 15.164 36.5321 16.1194 36.5321 18.2165C36.5321 20.3588 34.9079 21.7426 32.3948 21.7426C30.3584 21.7426 28.7238 20.821 27.9096 19.2136L27.7779 18.9544L30.1722 17.5683L30.3291 17.8244C30.8682 18.7049 31.4709 19.0802 32.3452 19.0802C33.0989 19.0802 33.6052 18.7466 33.6052 18.2496C33.6052 17.6989 33.2387 17.4926 32.1058 16.9971L31.5301 16.7504C29.9936 16.0961 28.5702 15.1869 28.5702 12.9849C28.5702 11.0059 30.0884 9.62391 32.2624 9.62391C33.9094 9.62391 35.0382 10.2609 35.8153 11.628L35.9594 11.8818L33.6395 13.3713L33.4797 13.0855C33.0919 12.3923 32.7266 12.2533 32.2625 12.2533C31.7772 12.2533 31.4646 12.5206 31.4646 12.9353C31.4646 13.4117 31.6949 13.6208 32.6987 14.0554L33.275 14.3029ZM50.2229 14.7083L51.9132 9.99936H54.8144L50.5148 21.937H49.8704L47.2623 16.3463C47.141 16.0901 47.016 15.772 46.9082 15.4805C46.798 15.7725 46.6698 16.0914 46.5483 16.3475L43.8383 21.937H43.1983L38.8298 9.99936H41.9289L43.6378 14.7083C43.7469 15.0087 43.8586 15.3748 43.9565 15.7145C44.0726 15.3639 44.2122 14.9853 44.3581 14.6801L46.6025 9.90103H47.2234L49.5026 14.6806C49.6479 14.9855 49.7881 15.3644 49.9037 15.7151C50.002 15.3748 50.1147 15.0087 50.2229 14.7083ZM58.1977 21.5942V9.75545H61.1258V21.5942H58.1977ZM70.7264 17.6166V14.9709H76.1634V20.2768L76.051 20.3693C75.4291 20.8795 73.78 21.7428 71.546 21.7428C67.7773 21.7428 65.1463 19.2478 65.1463 15.6754C65.1463 12.1691 67.6851 9.62396 71.1831 9.62396C73.1067 9.62396 74.5166 10.1657 75.4926 11.2804L75.6832 11.4982L73.6873 13.4723L73.4706 13.2492C72.9131 12.6749 72.3357 12.3192 71.183 12.3192C69.3913 12.3192 68.1397 13.6992 68.1397 15.6754C68.1397 17.7338 69.4762 19.0643 71.5459 19.0643C72.2324 19.0643 72.9472 18.9462 73.4337 18.7573V17.6167L70.7264 17.6166ZM85.5649 17.6166V14.9709H91.002V20.2768L90.8896 20.3693C90.2671 20.8795 88.6185 21.7428 86.3851 21.7428C82.6164 21.7428 79.9849 19.2478 79.9849 15.6754C79.9849 12.1691 82.5241 9.62396 86.0211 9.62396C87.9457 9.62396 89.3556 10.1657 90.3311 11.2804L90.5223 11.4982L88.527 13.4723L88.3097 13.2492C87.752 12.6749 87.1743 12.3192 86.021 12.3192C84.2299 12.3192 82.9783 13.6992 82.9783 15.6754C82.9783 17.7338 84.3153 19.0643 86.3851 19.0643C87.0716 19.0643 87.7858 18.9462 88.2723 18.7573V17.6167L85.5649 17.6166ZM101.731 9.7555H104.791L100.591 17.6334V21.5942H97.6468V17.8016L93.1718 9.7555H96.4374L98.5057 13.5301C98.7281 13.9408 98.9604 14.4836 99.136 14.9242C99.3037 14.4871 99.5257 13.9492 99.7465 13.5337L101.731 9.7555Z" fill="#FC8019"/>
</g>
<defs>
<clipPath id="clip0_0_228">
<rect width="104.356" height="31.0768" fill="white" transform="translate(0.941406 0.144531)"/>
</clipPath>
</defs>
</svg>
