<svg width="32" height="32" viewBox="0 0 32 32" fill="none" xmlns="http://www.w3.org/2000/svg">
<path fill-rule="evenodd" clip-rule="evenodd" d="M22.7147 12.2457C22.9663 12.5171 22.9663 12.9562 22.7147 13.2269L17.3833 18.9665C17.2658 19.095 17.1243 19.1973 16.9676 19.2672C16.8108 19.3371 16.642 19.3731 16.4714 19.3731C16.3008 19.3731 16.132 19.3371 15.9752 19.2672C15.8184 19.1973 15.677 19.095 15.5595 18.9665L10.1887 13.1854C10.0687 13.0542 10.0012 12.8804 10 12.6994C9.99882 12.5184 10.064 12.3437 10.1823 12.2108C10.2407 12.145 10.3115 12.0923 10.3903 12.056C10.4691 12.0198 10.5542 12.0007 10.6404 12C10.7266 11.9993 10.812 12.017 10.8913 12.052C10.9706 12.087 11.0422 12.1385 11.1016 12.2034L16.0156 17.4946C16.0744 17.5589 16.1451 17.6101 16.2235 17.645C16.3019 17.68 16.3864 17.6981 16.4717 17.6981C16.557 17.6981 16.6415 17.68 16.7199 17.645C16.7983 17.6101 16.8691 17.5589 16.9278 17.4946L21.8031 12.2457C21.8618 12.1814 21.9325 12.1302 22.0109 12.0952C22.0892 12.0603 22.1736 12.0422 22.2589 12.0422C22.3442 12.0422 22.4286 12.0603 22.507 12.0952C22.5853 12.1302 22.656 12.1814 22.7147 12.2457Z" fill="#111010"/>
</svg>
